<?xml version="1.0" encoding="UTF-8" standalone="no"?>
<!DOCTYPE svg PUBLIC "-//W3C//DTD SVG 1.1//EN" "http://www.w3.org/Graphics/SVG/1.1/DTD/svg11.dtd">

<svg width="100%" height="100%" viewBox="0 0 2048 2049" version="1.1" xmlns="http://www.w3.org/2000/svg" xmlns:xlink="http://www.w3.org/1999/xlink" xml:space="preserve" xmlns:serif="http://www.serif.com/" style="fill-rule:evenodd;clip-rule:evenodd;stroke-linejoin:round;stroke-miterlimit:2;">
    <g transform="matrix(1.05495,0,0,1.08,-59.275,-107.235)">
        <ellipse cx="1022.5" cy="1043.09" rx="962.759" ry="938.668" style="fill:rgb(38,38,38);"/>
    </g>
    <g transform="matrix(1,0,0,1,2.2343,-8.87101)">
        <g id="verde">
            <path class="verde" d="M1019.44,63.448L1018.15,1040.38L60.568,1022.74C122.524,445.41 550.311,104.483 1019.44,63.448Z" style="fill:rgb(0,149,29);"/>
        </g>
    </g>
    <g transform="matrix(0.00522701,0.999986,-0.999986,0.00522701,2073.86,-5.26507)">
        <g id="azul">
            <path class="azul" d="M1023,106.032L1026.79,1033.9L56.201,1029.13C139.885,411.661 546.664,149.03 1023,106.032Z" style="fill:rgb(19,0,193);"/>
        </g>
    </g>
    <g transform="matrix(-0.999985,-0.00539205,0.00539205,-0.999985,2065.56,2075.01)">
        <g id="amarillo">
            <path class="amarillo" d="M1022.85,94.014L1027.77,1018.26L93.817,1033.79C110.042,634.707 395.684,174.974 1022.85,94.014Z" style="fill:rgb(193,169,0);"/>
        </g>
    </g>
    <g transform="matrix(-0.00406367,-0.999992,0.999992,-0.00406367,14.2057,2054.35)">
        <g id="rojo">
            <path class="rojo" d="M1016.16,51.567L998.061,1010.73L77.125,1005.3C137.688,436.369 514.856,85.974 1016.16,51.567Z" style="fill:rgb(169,1,0);"/>
        </g>
    </g>
    <g transform="matrix(1.82596,0,0,1.92627,-883.6,-1017.23)">
        <ellipse cx="1052.43" cy="1062.38" rx="189.78" ry="181.177" style="fill:rgb(38,38,38);"/>
    </g>
    <g transform="matrix(1,0,0,1,-50.492,-34.1457)">
        <ellipse cx="1087.38" cy="1068.96" rx="267.685" ry="263.786" style="fill:rgb(129,129,129);"/>
    </g>
</svg>
